<?xml version="1.0" standalone="no"?>
<!DOCTYPE svg PUBLIC "-//W3C//DTD SVG 20010904//EN"
 "http://www.w3.org/TR/2001/REC-SVG-20010904/DTD/svg10.dtd">
<svg version="1.0" xmlns="http://www.w3.org/2000/svg"
 width="700.000000pt" height="700.000000pt" viewBox="0 0 700.000000 700.000000"
 preserveAspectRatio="xMidYMid meet">
<metadata>
Created by potrace 1.11, written by Peter Selinger 2001-2013
</metadata>
<g transform="translate(0.000000,700.000000) scale(0.100000,-0.100000)"
fill="#000000" stroke="none">
<path d="M72 6938 c-21 -6 -40 -21 -52 -41 -24 -39 -25 -59 -5 -101 16 -33
195 -222 295 -311 83 -73 275 -224 358 -280 40 -27 78 -56 85 -64 7 -8 13 -42
13 -75 1 -34 5 -205 9 -381 12 -531 13 -585 15 -710 2 -129 15 -176 61 -225
53 -56 151 -76 222 -46 18 7 167 120 332 252 165 131 387 307 492 390 l193
153 72 -25 c115 -40 369 -112 542 -155 88 -21 161 -41 163 -43 5 -4 119 -341
288 -846 117 -349 120 -356 165 -401 63 -63 145 -77 225 -40 53 24 57 30 235
291 125 184 154 232 158 267 4 35 0 48 -17 67 l-22 23 51 76 51 76 47 -6 c63
-7 78 6 187 166 82 121 95 136 118 132 9 -2 434 -11 636 -14 l103 -2 325 -535
c178 -294 334 -546 346 -559 29 -31 100 -61 145 -61 41 0 111 29 141 57 17 16
81 132 81 148 0 6 267 686 295 750 7 17 36 91 65 165 29 74 53 136 54 137 1 1
20 5 42 8 54 8 115 17 139 21 11 2 60 8 109 14 49 6 102 18 118 28 53 31 59
114 11 160 -27 25 -66 28 -173 12 -36 -5 -86 -12 -112 -15 l-47 -6 3 43 c5 60
-8 97 -49 145 -60 71 -115 81 -325 59 -30 -3 -86 -8 -125 -11 -65 -5 -96 -8
-230 -20 -27 -3 -86 -7 -130 -10 -44 -3 -93 -8 -110 -10 -16 -2 -70 -7 -120
-10 -49 -4 -107 -8 -129 -11 -21 -2 -70 -6 -110 -9 -148 -11 -192 -18 -226
-35 -80 -42 -114 -97 -113 -187 l0 -61 -181 3 c-100 1 -216 3 -258 4 l-77 1 8
28 c20 69 -8 153 -68 203 -45 37 -77 46 -231 64 -25 3 -52 7 -60 10 -8 2 -40
7 -70 10 -30 3 -66 7 -80 9 -22 4 -47 7 -157 22 -83 11 -110 14 -133 19 -14 2
-45 7 -70 9 -48 5 -85 10 -165 22 -27 4 -59 8 -70 9 -11 1 -54 7 -95 13 -41 7
-97 15 -125 19 -27 4 -84 8 -126 8 -67 0 -80 -3 -117 -29 -52 -36 -80 -80 -88
-140 -4 -25 -9 -46 -11 -46 -27 0 -498 132 -509 143 -2 2 3 19 12 37 37 73 26
165 -28 225 -20 24 -71 55 -154 95 -68 33 -126 60 -128 60 -2 0 -55 24 -117
54 -223 106 -485 229 -524 246 -22 10 -97 45 -167 78 -180 86 -223 94 -301 58
-41 -20 -97 -78 -97 -101 0 -27 -21 -16 -128 67 -171 131 -293 242 -449 410
-50 54 -85 68 -131 56z"/>
<path d="M4811 6859 c-114 -22 -239 -111 -298 -214 -74 -128 -78 -287 -10
-424 26 -55 116 -149 172 -181 91 -52 218 -69 323 -45 204 48 346 236 338 448
-11 268 -260 466 -525 416z"/>
<path d="M6876 4139 c-35 -10 -63 -35 -83 -74 -97 -192 -322 -510 -519 -732
l-73 -82 -27 36 c-48 63 -153 92 -229 63 -16 -6 -61 -35 -100 -64 -38 -29
-178 -133 -310 -231 -638 -473 -691 -514 -713 -554 -28 -49 -34 -112 -16 -166
15 -42 67 -105 88 -105 25 0 -262 -151 -439 -230 -66 -29 -126 -57 -132 -63
-7 -5 -13 -6 -14 -1 -8 88 -42 151 -103 188 -79 49 -91 47 -586 -100 -69 -20
-154 -45 -190 -55 -36 -10 -87 -25 -115 -33 -62 -18 -259 -76 -380 -111 -49
-14 -103 -31 -120 -37 -106 -41 -159 -142 -129 -245 l12 -42 -37 -5 c-61 -9
-117 -16 -167 -21 -27 -3 -60 -7 -74 -10 -14 -2 -70 -7 -125 -11 -55 -3 -103
-8 -107 -10 -4 -3 -7 17 -6 44 0 54 -22 115 -55 151 -46 49 -102 64 -297 76
-88 5 -207 13 -305 20 -102 7 -189 13 -285 20 -47 3 -110 8 -140 10 -187 15
-276 19 -361 20 -88 0 -99 -2 -138 -28 -40 -27 -82 -82 -88 -117 -7 -38 -4
-97 6 -122 14 -37 35 -37 -217 -4 -100 13 -197 22 -214 20 -51 -6 -83 -45 -82
-99 1 -71 35 -96 149 -110 28 -3 59 -8 70 -10 20 -4 66 -10 160 -20 28 -3 66
-7 85 -10 19 -3 60 -7 90 -11 63 -6 60 -4 84 -64 10 -25 22 -54 27 -65 10 -23
166 -401 289 -700 130 -317 136 -326 205 -363 34 -17 141 -26 150 -11 4 5 14
9 24 9 10 0 33 15 52 33 42 41 339 548 346 591 3 22 -2 41 -20 67 l-25 37 45
75 44 75 39 -5 c27 -4 47 0 65 11 24 16 70 82 109 157 10 19 31 53 45 74 23
34 32 39 67 41 23 1 83 5 135 9 52 4 110 8 129 9 30 3 86 9 190 21 76 9 144
18 215 30 l80 13 50 -53 c28 -28 72 -76 99 -106 28 -30 77 -83 110 -119 34
-36 88 -95 121 -131 33 -36 107 -116 165 -178 58 -63 113 -123 123 -135 114
-131 215 -227 253 -242 90 -34 200 4 248 85 22 38 44 147 117 571 5 30 11 66
14 80 6 31 23 124 30 170 3 19 8 42 10 50 2 8 7 35 10 60 4 25 11 68 16 95 6
28 12 64 15 80 2 17 10 57 17 89 l12 59 166 72 c183 79 393 183 570 281 l116
65 184 -94 c837 -429 917 -467 968 -467 82 0 151 42 188 114 17 33 23 115 12
166 -4 19 -10 49 -13 65 -39 214 -59 324 -61 342 -2 12 -6 34 -9 50 -4 15 -9
42 -12 58 -3 17 -29 163 -59 325 -29 162 -55 305 -57 316 -2 16 22 49 88 120
234 253 452 546 589 792 71 125 78 168 35 211 -34 34 -55 40 -94 30z"/>
<path d="M1968 3730 c-138 -42 -243 -142 -294 -280 -23 -64 -27 -192 -8 -260
93 -326 497 -434 737 -197 135 135 170 328 89 501 -51 108 -138 187 -256 231
-68 25 -194 27 -268 5z"/>
<path d="M5278 1205 c-1 -2 -23 -5 -48 -8 -88 -10 -160 -43 -233 -107 -246
-217 -174 -624 130 -741 67 -25 88 -29 163 -29 54 -1 64 1 125 15 89 22 218
125 259 205 47 93 55 131 53 234 -2 91 -5 107 -35 168 -18 37 -45 82 -59 99
-66 78 -176 141 -271 155 -21 3 -47 7 -59 9 -12 2 -23 2 -25 0z"/>
</g>
</svg>
