<?xml version="1.0" encoding="utf-8"?>
<!-- Generator: Adobe Illustrator 22.1.0, SVG Export Plug-In . SVG Version: 6.00 Build 0)  -->
<svg version="1.1" id="图层_1" xmlns="http://www.w3.org/2000/svg" xmlns:xlink="http://www.w3.org/1999/xlink" x="0px" y="0px"
	 viewBox="0 0 98.5 32" style="enable-background:new 0 0 98.5 32;" xml:space="preserve">
<style type="text/css">
	.st0{fill:#41B883;}
	.st1{fill:#34495E;}
	.st2{fill:#708090;fill-opacity:0.749;}
</style>
<path class="st0" d="M88,6.8L85.5,11L83,6.8h-8.2l10.7,18.5L96.2,6.8H88z"/>
<path class="st1" d="M88,6.8L85.5,11L83,6.8h-3.9l6.4,11.1l6.4-11.1H88z"/>
<g>
	<path class="st2" d="M2.7,20.2v-8.3h1.5l2.6,6.4l2.6-6.4h1.5v8.3h-1v-7l-2.8,7H6.5l-2.8-7v7H2.7 M11.9,20.2l3.4-8.3h1.3l3.4,8.3
		h-1.2L18,18.3h-4.2l-0.7,1.9H11.9 M14.2,17.4h3.5l-1.8-4.5L14.2,17.4 M21,20.2v-8.3h2.9c0.8,0,1.6,0.2,2.3,0.6
		c0.6,0.3,1.2,0.9,1.5,1.5c0.4,0.7,0.5,1.4,0.5,2.1c0,0.6-0.1,1.1-0.3,1.7c-0.2,0.5-0.5,0.9-0.9,1.3c-0.4,0.4-0.8,0.7-1.4,0.9
		c-0.6,0.2-1.2,0.3-1.8,0.3H21 M22.1,19.2h1.8c0.7,0,1.2-0.1,1.7-0.4c0.5-0.3,0.9-0.7,1.1-1.2c0.2-0.5,0.4-1,0.4-1.6
		c0-0.6-0.1-1.2-0.4-1.6c-0.2-0.5-0.6-0.9-1.1-1.2c-0.5-0.3-1.1-0.4-1.7-0.4h-1.8V19.2 M29.8,20.2v-8.3h5.5v0.9h-4.4v2.7h4.3v0.9
		h-4.3v2.9h4.4v0.9L29.8,20.2 M39.3,11.8h1.1l1.8,7l1.9-7h0.9l1.9,7l1.8-7H50l-2.4,8.3h-1.1l-1.8-6.7l-1.8,6.7h-1.1L39.3,11.8
		 M51.1,20.2v-8.3h1v8.3H51.1 M53.5,12.8v-0.9h6.3v0.9h-2.7v7.4h-1v-7.4H53.5 M61.2,20.2v-8.3h1v3.6h4.9v-3.6h1v8.3h-1v-3.8h-4.9
		v3.8H61.2z"/>
</g>
</svg>
